# xmcd
#
# Track frame offsets:
# 150
# 15990
# 33187
# 51157
# 70497
# 88130
# 103797
# 123000
# 143637
# 163545
# 185857
# 208197
# 228880
# 253560
# 275537
# 293390
# 311562
# 329570
#
# Disc length: 4603 seconds
#
# Revision: 0
# Processed by: cddbd v1.5.1PL0 Copyright (c) Steve Scherf et al.
# Submitted via: MacMP3 Pro 5.0 (http://mp3.act2.co.jp/)
#
DISCID=fe11f912
DTITLE=Dionne Warwick - The Best Of Dionne Warwick
DYEAR=1900
DGENRE=
TTITLE0=I'll Never Love This Way Again
TTITLE1=Deja Vu
TTITLE2=Friends In Love
TTITLE3=Heartbreaker
TTITLE4=Take The Short Way Home
TTITLE5=How Many Times Can We Say Goodbye
TTITLE6=That's What Friends Are For
TTITLE7=Love Power
TTITLE8=Reservations For Two
TTITLE9=Love Will Find A Way
TTITLE10=It's You
TTITLE11=Whisper In The Dark
TTITLE12=Friends Can Be Lovers
TTITLE13=Can't Hide Love
TTITLE14=A Love So Right
TTITLE15=After You
TTITLE16=Some Changes Are For Good
TTITLE17=All The Love In The World
EXTD=
EXTT0=
EXTT1=
EXTT2=
EXTT3=
EXTT4=
EXTT5=
EXTT6=
EXTT7=
EXTT8=
EXTT9=
EXTT10=
EXTT11=
EXTT12=
EXTT13=
EXTT14=
EXTT15=
EXTT16=
EXTT17=
PLAYORDER=
